<svg xmlns="http://www.w3.org/2000/svg" width="960" height="468" viewBox="0 0 960 468" style="max-width:100%;height:auto" font-family="system-ui,-apple-system,'Segoe UI','Microsoft YaHei','PingFang SC','Noto Sans CJK SC',sans-serif">
<rect x="0" y="0" width="960" height="468" fill="#ffffff"/>
<text x="28" y="34" font-size="20" font-weight="700" fill="#1a1a1a">常规 6 项算法：Go vs Nim</text>
<text x="28" y="56" font-size="13" fill="#666666">同一算法逻辑两端一致，7 次采样取中位数，单线程；单位 ms</text>
<rect x="28" y="72" width="13" height="13" rx="2" fill="#0076A8"/>
<text x="46" y="83" font-size="13" fill="#333">Go 1.26.7</text>
<rect x="145" y="72" width="13" height="13" rx="2" fill="#E8A200"/>
<text x="163" y="83" font-size="13" fill="#333">Nim 2.2.12 (ORC)</text>
<line x1="168.0" y1="96" x2="168.0" y2="412.0" stroke="#e6e6e6" stroke-width="1"/>
<text x="168.0" y="430" font-size="11.5" fill="#888888" text-anchor="middle">0</text>
<line x1="343.0" y1="96" x2="343.0" y2="412.0" stroke="#e6e6e6" stroke-width="1"/>
<text x="343.0" y="430" font-size="11.5" fill="#888888" text-anchor="middle">100</text>
<line x1="518.0" y1="96" x2="518.0" y2="412.0" stroke="#e6e6e6" stroke-width="1"/>
<text x="518.0" y="430" font-size="11.5" fill="#888888" text-anchor="middle">200</text>
<line x1="693.0" y1="96" x2="693.0" y2="412.0" stroke="#e6e6e6" stroke-width="1"/>
<text x="693.0" y="430" font-size="11.5" fill="#888888" text-anchor="middle">300</text>
<line x1="868.0" y1="96" x2="868.0" y2="412.0" stroke="#e6e6e6" stroke-width="1"/>
<text x="868.0" y="430" font-size="11.5" fill="#888888" text-anchor="middle">400</text>
<text x="868.0" y="450" font-size="12" fill="#666666" text-anchor="end">耗时 ms — 越小越快</text>
<rect x="168.0" y="96.0" width="16.1" height="16" rx="2" fill="#0076A8" opacity="0.92"/>
<text x="189.1" y="108.0" font-size="11.5" fill="#333">9.2</text>
<rect x="168.0" y="114.0" width="77.5" height="16" rx="2" fill="#E8A200" opacity="0.92"/>
<text x="250.5" y="126.0" font-size="11.5" fill="#333">44</text>
<text x="154" y="118.5" font-size="13" font-weight="600" fill="#333" text-anchor="end">fib32</text>
<rect x="168.0" y="152.0" width="700.0" height="16" rx="2" fill="#0076A8" opacity="0.92"/>
<text x="873.0" y="164.0" font-size="11.5" fill="#333">448</text>
<rect x="168.0" y="170.0" width="677.1" height="16" rx="2" fill="#E8A200" opacity="0.92"/>
<text x="850.1" y="182.0" font-size="11.5" fill="#333">387</text>
<text x="154" y="174.5" font-size="13" font-weight="600" fill="#333" text-anchor="end">sieve50M</text>
<line x1="168" y1="142.0" x2="868.0" y2="142.0" stroke="#e6e6e6" stroke-width="1" stroke-dasharray="3 3"/>
<rect x="168.0" y="208.0" width="269.8" height="16" rx="2" fill="#0076A8" opacity="0.92"/>
<text x="442.8" y="220.0" font-size="11.5" fill="#333">154</text>
<rect x="168.0" y="226.0" width="290.3" height="16" rx="2" fill="#E8A200" opacity="0.92"/>
<text x="463.3" y="238.0" font-size="11.5" fill="#333">166</text>
<text x="154" y="230.5" font-size="13" font-weight="600" fill="#333" text-anchor="end">quicksort2M</text>
<line x1="168" y1="198.0" x2="868.0" y2="198.0" stroke="#e6e6e6" stroke-width="1" stroke-dasharray="3 3"/>
<rect x="168.0" y="264.0" width="214.5" height="16" rx="2" fill="#0076A8" opacity="0.92"/>
<text x="387.5" y="276.0" font-size="11.5" fill="#333">123</text>
<rect x="168.0" y="282.0" width="171.0" height="16" rx="2" fill="#E8A200" opacity="0.92"/>
<text x="344.0" y="294.0" font-size="11.5" fill="#333">98</text>
<text x="154" y="286.5" font-size="13" font-weight="600" fill="#333" text-anchor="end">matmul512</text>
<line x1="168" y1="254.0" x2="868.0" y2="254.0" stroke="#e6e6e6" stroke-width="1" stroke-dasharray="3 3"/>
<rect x="168.0" y="320.0" width="162.8" height="16" rx="2" fill="#0076A8" opacity="0.92"/>
<text x="335.8" y="332.0" font-size="11.5" fill="#333">93</text>
<rect x="168.0" y="338.0" width="101.3" height="16" rx="2" fill="#E8A200" opacity="0.92"/>
<text x="274.3" y="350.0" font-size="11.5" fill="#333">58</text>
<text x="154" y="342.5" font-size="13" font-weight="600" fill="#333" text-anchor="end">fnv64MB</text>
<line x1="168" y1="310.0" x2="868.0" y2="310.0" stroke="#e6e6e6" stroke-width="1" stroke-dasharray="3 3"/>
<rect x="168.0" y="376.0" width="39.6" height="16" rx="2" fill="#0076A8" opacity="0.92"/>
<text x="212.6" y="388.0" font-size="11.5" fill="#333">23</text>
<rect x="168.0" y="394.0" width="117.1" height="16" rx="2" fill="#E8A200" opacity="0.92"/>
<text x="290.1" y="406.0" font-size="11.5" fill="#333">67</text>
<text x="154" y="398.5" font-size="13" font-weight="600" fill="#333" text-anchor="end">alloc2M</text>
<line x1="168" y1="366.0" x2="868.0" y2="366.0" stroke="#e6e6e6" stroke-width="1" stroke-dasharray="3 3"/>
<line x1="168.0" y1="96" x2="168.0" y2="412.0" stroke="#cccccc" stroke-width="1.5"/>
</svg>
